# xmcd
#
# Track frame offsets: 
#        150
#        12374
#        26029
#        37824
#        51441
#        61936
#        72735
#        95825
#        109766
#        127190
#        139770
#        152968
#        168215
#        180111
#        191660
#
# Disc length: 2755 seconds
#
# Revision: 3
# Processed by: cddbd v1.5.2PL0 Copyright (c) Steve Scherf et al.
# Submitted via: ExactAudioCopy v0.99pb5
#
DISCID=d40ac10f
DTITLE=Various Artist - Classic Country - TL 626-39 - Queens Of Country - CD 
DTITLE=1
DYEAR=2004
DGENRE=Country
TTITLE0=Tammy Wynette - Stand by your man
TTITLE1=Olivia Newton-John - Let me be there
TTITLE2=Patsy Cline - Sweet dreams (of you)
TTITLE3=Loretta Lynn - Coal miner's daughter
TTITLE4=Connie Smith - Once a day
TTITLE5=Brenda Lee - He's my rock
TTITLE6=Linda Ronstadt - When will I be loved
TTITLE7=Tanya Tucker - What's your mama's name, child
TTITLE8=Crystal Gayle - You never miss a real good thing
TTITLE9=Donna Fargo - Funny face
TTITLE10=Reba McEntire - I don't want to be a one night stand
TTITLE11=Jeanne Pruett - Satin sheets
TTITLE12=Emmylou Harris - If I could only win your love
TTITLE13=Sammi Smith - Help me make it through the night
TTITLE14=Billie Jo Spears - I will survive
EXTD=
EXTT0=
EXTT1=
EXTT2=
EXTT3=
EXTT4=
EXTT5=
EXTT6=
EXTT7=
EXTT8=
EXTT9=
EXTT10=
EXTT11=
EXTT12=
EXTT13=
EXTT14=
PLAYORDER=
